<svg id="Capa_1" enable-background="new 0 0 511.453 511.453"  viewBox="0 0 511.453 511.453"  xmlns="http://www.w3.org/2000/svg">
<g class="signage-logo" opacity="1"><defs id="SvgjsDefs1002"><linearGradient id="SvgjsLinearGradient9OOpWxVEKs" gradientUnits="userSpaceOnUse" x1="6.278814168967556" y1="54.59528180167921" x2="93.72118583103143" y2="45.4047181983209"><stop id="SvgjsStop1010" stop-color="#ff0f56" offset="0.0199"></stop><stop id="SvgjsStop1011" stop-color="#1890ff" offset="1"></stop></linearGradient></defs><g id="SvgjsG1008" transform="scale(1.5853501639494594)" opacity="1"><g id="SvgjsG1012" class="CvLI3U03-" transform="translate(6.960188318960544, -17.902423198590046) scale(1.7902423198590047)" light-content="false" non-strokable="false" fill="url(#SvgjsLinearGradient9OOpWxVEKs)"><path d="M50 90c-22.056 0-40-17.944-40-40s17.944-40 40-40 40 17.944 40 40-17.944 40-40 40zm0-78c-20.953 0-38 17.047-38 38s17.047 38 38 38 38-17.047 38-38-17.047-38-38-38zm0 72c-18.748 0-34-15.252-34-34 0-2.091.2-4.216.595-6.316l.238-1.265 17.737 8.246-1.168 7.013a6.28 6.28 0 0 0 1.404 5.099A6.276 6.276 0 0 0 39.603 65h20.794a6.278 6.278 0 0 0 4.798-2.224 6.275 6.275 0 0 0 1.404-5.099l-1.168-7.013 17.737-8.246.238 1.265C83.8 45.784 84 47.909 84 50c0 18.748-15.252 34-34 34zM18.347 45.329A31.94 31.94 0 0 0 18 50c0 17.645 14.355 32 32 32s32-14.355 32-32a31.94 31.94 0 0 0-.347-4.671l-14 6.508.918 5.513a8.276 8.276 0 0 1-1.851 6.72A8.271 8.271 0 0 1 60.397 67H39.603a8.273 8.273 0 0 1-6.324-2.931 8.275 8.275 0 0 1-1.851-6.72l.918-5.513-13.999-6.507zm43.241-1.7l-.403-.164A6.237 6.237 0 0 0 58.826 43H41.174c-.805 0-1.599.156-2.359.465l-.403.164-18.875-8.775.502-.934C25.983 22.867 37.463 16 50 16s24.017 6.867 29.961 17.92l.502.934-18.875 8.775zM41.174 41h17.652c.917 0 1.821.153 2.694.455l16.162-7.514C71.955 24.082 61.445 18 50 18s-21.955 6.082-27.682 15.941l16.162 7.514A8.212 8.212 0 0 1 41.174 41z"></path></g><g id="SvgjsG1013" class="text" transform="translate(100.0999984741211, 186.76370811824142) scale(1)" light-content="false" fill="#a3a3a3"><path d="M-80.05 -30.49C-80.82 -32.04 -82.02 -32.82 -83.63 -32.82C-84.37 -32.82 -85.08 -32.61 -85.75 -32.19C-86.43 -31.77 -86.93 -31.22 -87.25 -30.53L-99.34 -5.51C-99.85 -4.49 -100.1 -3.73 -100.1 -3.22C-100.1 -2.15 -99.24 -1.19 -97.51 -0.36C-96.49 0.15 -95.69 0.4 -95.11 0.4C-94.53 0.4 -94.05 0.26 -93.68 -0.02C-93.31 -0.31 -93.04 -0.58 -92.87 -0.85C-92.71 -1.12 -92.48 -1.55 -92.18 -2.15L-89.85 -6.98L-77.45 -6.98L-75.12 -2.15C-74.82 -1.55 -74.59 -1.1 -74.43 -0.81C-74.26 -0.51 -74 -0.22 -73.62 0.04C-73.25 0.31 -72.77 0.45 -72.19 0.45C-71.61 0.45 -70.81 0.19 -69.79 -0.31C-68.06 -1.18 -67.2 -2.15 -67.2 -3.22C-67.2 -3.73 -67.45 -4.49 -67.96 -5.51ZM-83.67 -19.74L-80.67 -13.61L-86.63 -13.61Z M-51.57 -0.09C-50.38 -0.09 -49.28 -0.42 -48.26 -1.07C-47.87 -1.34 -47.47 -1.67 -47.05 -2.06C-46.63 -2.45 -46.37 -2.75 -46.25 -2.95C-46.25 -2.24 -46.1 -1.63 -45.8 -1.12C-45.38 -0.4 -44.26 -0.04 -42.44 -0.04C-40.59 -0.04 -39.44 -0.43 -38.99 -1.21C-38.75 -1.63 -38.61 -2.01 -38.57 -2.35C-38.52 -2.69 -38.5 -3.19 -38.5 -3.85L-38.5 -19.7C-38.5 -20.38 -38.52 -20.9 -38.57 -21.24C-38.61 -21.59 -38.74 -21.98 -38.95 -22.43C-39.37 -23.24 -40.52 -23.64 -42.4 -23.64C-44.31 -23.64 -45.46 -23.25 -45.84 -22.47C-46.08 -22.03 -46.22 -21.63 -46.27 -21.29C-46.31 -20.94 -46.34 -20.43 -46.34 -19.74L-46.34 -11.82C-46.34 -10.66 -46.7 -9.71 -47.43 -9C-48.16 -8.28 -49.12 -7.92 -50.3 -7.92C-51.48 -7.92 -52.42 -8.27 -53.12 -8.95C-53.82 -9.64 -54.17 -10.6 -54.17 -11.82L-54.17 -19.65C-54.17 -20.7 -54.26 -21.46 -54.44 -21.94C-54.8 -23.07 -56.02 -23.64 -58.11 -23.64C-60.02 -23.64 -61.18 -23.24 -61.6 -22.43C-61.81 -21.98 -61.94 -21.59 -61.98 -21.27C-62.03 -20.94 -62.05 -20.41 -62.05 -19.7L-62.05 -11.86C-62.05 -8.58 -61.06 -5.8 -59.07 -3.51C-57.09 -1.23 -54.59 -0.09 -51.57 -0.09Z M-21.8 -8.84C-22.64 -9.54 -23.06 -10.53 -23.06 -11.8C-23.06 -13.07 -22.62 -14.06 -21.76 -14.77C-20.89 -15.49 -19.96 -15.85 -18.96 -15.85C-17.96 -15.85 -17.19 -15.59 -16.65 -15.09C-15.61 -14.43 -14.8 -14.1 -14.24 -14.1C-13.25 -14.1 -12.22 -14.92 -11.15 -16.56C-10.52 -17.52 -10.21 -18.38 -10.21 -19.14C-10.21 -19.9 -10.6 -20.58 -11.37 -21.18C-11.67 -21.38 -12.09 -21.67 -12.62 -22.03L-13.34 -22.47C-13.85 -22.77 -14.64 -23.08 -15.71 -23.39C-16.79 -23.71 -17.89 -23.86 -19.03 -23.86C-21.83 -23.86 -24.47 -22.88 -26.95 -20.91C-28.17 -19.95 -29.17 -18.69 -29.95 -17.12C-30.73 -15.56 -31.11 -13.81 -31.11 -11.89C-31.11 -9.96 -30.73 -8.2 -29.95 -6.6C-29.17 -5.01 -28.17 -3.73 -26.95 -2.78C-24.38 -0.78 -21.71 0.22 -18.94 0.22C-16.46 0.22 -14.37 -0.37 -12.67 -1.57C-11.03 -2.55 -10.21 -3.61 -10.21 -4.75C-10.21 -5.43 -10.55 -6.21 -11.24 -7.07C-12.52 -8.66 -13.61 -9.45 -14.51 -9.45C-15.01 -9.45 -15.68 -9.17 -16.5 -8.62C-17.32 -8.07 -18.2 -7.79 -19.14 -7.79C-20.08 -7.79 -20.97 -8.14 -21.8 -8.84Z M1.16 -32.86C-0.75 -32.86 -1.91 -32.46 -2.33 -31.65C-2.57 -31.2 -2.71 -30.82 -2.75 -30.49C-2.8 -30.16 -2.82 -29.64 -2.82 -28.92L-2.82 -4.03C-2.82 -2.75 -2.64 -1.79 -2.28 -1.16C-1.84 -0.42 -0.7 -0.04 1.12 -0.04L9.31 -0.04C13.88 -0.04 17.77 -1.67 20.97 -4.92C24.18 -8.18 25.79 -12.08 25.79 -16.63C25.79 -21.18 24.15 -25.02 20.86 -28.14C17.58 -31.26 13.77 -32.82 9.45 -32.82ZM15.27 -10.36C13.54 -8.77 11.6 -7.97 9.45 -7.97L5.1 -7.97L5.1 -24.89L9.4 -24.89C11.67 -24.89 13.65 -24.08 15.33 -22.45C17.02 -20.83 17.86 -18.8 17.86 -16.39C17.86 -13.97 17 -11.96 15.27 -10.36Z M50.61 -22.41C50.24 -22.84 49.77 -23.15 49.2 -23.32C48.63 -23.5 48.11 -23.63 47.63 -23.71C47.16 -23.78 46.57 -23.82 45.87 -23.82C45.16 -23.82 44.35 -23.56 43.43 -23.06C42.5 -22.55 41.9 -22.15 41.61 -21.85C41.33 -21.55 41.11 -21.3 40.96 -21.09C40.96 -21.59 40.8 -22.09 40.47 -22.56C40.02 -23.25 38.9 -23.59 37.11 -23.59C35.2 -23.59 34.04 -23.19 33.62 -22.38C33.41 -21.97 33.29 -21.59 33.24 -21.24C33.2 -20.9 33.17 -20.38 33.17 -19.7L33.17 -3.98L33.17 -2.69C33.23 -1.82 33.5 -1.18 33.98 -0.76C34.61 -0.25 35.64 0 37.07 0C38.95 0 40.11 -0.39 40.56 -1.16C40.8 -1.61 40.94 -2.01 40.99 -2.35C41.03 -2.69 41.05 -3.21 41.05 -3.89L41.05 -13.3C41.05 -14.1 41.4 -14.79 42.11 -15.36C42.81 -15.92 43.56 -16.21 44.37 -16.21C45.17 -16.21 45.82 -16.09 46.31 -15.85C46.81 -15.61 47.32 -15.49 47.86 -15.49C48.93 -15.49 49.75 -16.06 50.32 -17.19C50.89 -18.33 51.17 -19.37 51.17 -20.33C51.17 -21.28 50.98 -21.97 50.61 -22.41Z M58.11 -19.65L58.11 -3.94C58.11 -3.22 58.13 -2.7 58.18 -2.37C58.22 -2.04 58.35 -1.66 58.56 -1.21C58.98 -0.4 60.12 0 62 0C63.92 0 65.06 -0.39 65.45 -1.16C65.69 -1.61 65.83 -2.01 65.88 -2.35C65.92 -2.69 65.94 -3.21 65.94 -3.89L65.94 -19.56C65.94 -20.13 65.93 -20.56 65.9 -20.86C65.87 -21.73 65.6 -22.37 65.09 -22.79C64.5 -23.29 63.48 -23.55 62.05 -23.55C60.14 -23.55 58.98 -23.16 58.56 -22.38C58.35 -21.94 58.22 -21.54 58.18 -21.2C58.13 -20.85 58.11 -20.34 58.11 -19.65ZM64.29 -27.04C64.86 -27.22 65.25 -27.53 65.47 -27.96C65.7 -28.39 65.83 -28.78 65.88 -29.12C65.92 -29.47 65.94 -29.98 65.94 -30.67C65.94 -31.35 65.92 -31.87 65.88 -32.21C65.83 -32.55 65.69 -32.95 65.45 -33.4C65.06 -34.2 63.93 -34.61 62.05 -34.61C60.14 -34.61 58.98 -34.2 58.56 -33.4C58.35 -32.98 58.22 -32.6 58.18 -32.26C58.13 -31.91 58.11 -31.4 58.11 -30.71C58.11 -30.03 58.13 -29.51 58.18 -29.17C58.22 -28.82 58.36 -28.43 58.58 -27.98C58.8 -27.53 59.2 -27.22 59.77 -27.04C60.33 -26.86 61.09 -26.77 62.03 -26.77C62.97 -26.77 63.72 -26.86 64.29 -27.04Z M97.78 -23.06C96.73 -23.68 95.91 -24 95.31 -24C94.72 -24 94.24 -23.87 93.88 -23.62C93.52 -23.36 93.26 -23.11 93.1 -22.85C92.93 -22.6 92.69 -22.19 92.36 -21.62L86.49 -10.34L80.63 -21.62C80.21 -22.43 79.82 -23.03 79.44 -23.44C79.07 -23.84 78.55 -24.04 77.9 -24.04C77.24 -24.04 76.35 -23.71 75.21 -23.06C73.66 -22.13 72.88 -21.13 72.88 -20.06C72.88 -19.43 73.18 -18.62 73.78 -17.64L83.09 -1.7L83.49 -1.21C83.73 -0.88 84.14 -0.56 84.73 -0.25C85.31 0.07 85.92 0.22 86.56 0.22C87.2 0.22 87.85 0.02 88.51 -0.38C89.16 -0.78 89.64 -1.24 89.94 -1.75L99.21 -17.64C99.8 -18.68 100.1 -19.5 100.1 -20.1C100.1 -21.15 99.33 -22.13 97.78 -23.06Z"></path></g><g id="SvgjsG1014" class="text" transform="translate(58.53456873099282, 104.81312800446965) scale(1)" light-content="false" fill="#1890ff"><path d="M13.36 -8.14L16.5 0L41.59 0L11.9 -74.49L-12.29 -74.49L7.63 -22.9L-5.84 -22.9L-11 -8.14ZM-17.63 0L-3.99 -41.54L-14.99 -71.12L-41.59 0Z"></path></g><g id="SvgjsG1015" class="text" transform="translate(137.2261277462477, 105.93313075105168) scale(1)" light-content="false" fill="#ff0f56"><path d="M-36.09 -0.67C-29.36 0 -22.01 0.33 -14.03 0.33C-3.01 0.33 6.1 -0.76 13.3 -2.94C20.51 -5.12 26.3 -9.05 30.66 -14.75C35.53 -21.32 37.97 -29.94 37.97 -40.58C37.97 -49.01 36.55 -55.77 33.71 -60.87C30.86 -65.97 26.35 -69.7 20.18 -72.07C14.01 -74.43 5.82 -75.61 -4.38 -75.61C-7.56 -75.61 -11.77 -75.45 -17.02 -75.12C-22.27 -74.78 -28.73 -74.32 -36.42 -73.73L-37.09 -64.53L-31.32 -61.31C-30.06 -60.8 -29.29 -60.22 -28.99 -59.59C-28.7 -58.97 -28.55 -57.69 -28.55 -55.77L-28.55 -13.53L-36.64 -11.31ZM14.69 -17.74C11.07 -16.26 6.15 -15.52 -0.06 -15.52C-2.72 -15.52 -5.53 -15.71 -8.48 -16.08L-8.48 -61.53C-7.74 -61.61 -6.97 -61.68 -6.15 -61.76C-5.34 -61.83 -4.45 -61.87 -3.49 -61.87C3.53 -61.87 8.76 -59.87 12.2 -55.88C15.63 -51.89 17.35 -45.72 17.35 -37.36C17.35 -33.96 17.07 -30.31 16.52 -26.39C15.97 -22.47 15.36 -19.59 14.69 -17.74Z"></path></g></g></g>
</svg>